<?xml version="1.0" standalone="no"?>
<!DOCTYPE svg PUBLIC "-//W3C//DTD SVG 1.1//EN" "http://www.w3.org/Graphics/SVG/1.1/DTD/svg11.dtd">
<svg width="102.6mm" height="134.6mm"
 viewBox="0 0 102.6 134.6"
 xmlns="http://www.w3.org/2000/svg" version="1.1"
 xmlns:xlink="http://www.w3.org/1999/xlink">
<desc>Output from Flights of Ideas SVG Sketchup Plugin</desc>

  <path id="face0-cut"
 style="fill:none;stroke:#0000FF;stroke-width:1;stroke-miterlimit:4;stroke-dasharray:none;stroke-linejoin:round;stroke-linecap:round"
        d="M 17.95,10.0 L 17.95,28.0 L 10.0,28.0 L 10.0,106.6 L 17.95,106.6 L 17.95,124.6 L 84.65,124.6 L 84.65,106.6 L 92.6,106.6 L 92.6,28.0 L 84.65,28.0 L 84.65,10.0 L 17.95,10.0 M 76.05,13.5000000000001 L 76.1045186779375,13.085889527836 L 76.2643593539449,12.6999999999999 L 76.5186291501015,12.3686291501016 L 76.85,12.1143593539447 L 77.235889527836,11.9545186779372 L 77.65,11.9000000000002 L 78.064110472164,11.9545186779374 L 78.45,12.1143593539447 L 78.7813708498985,12.3686291501015 L 79.0356406460551,12.7 L 79.1954813220625,13.0858895278361 L 79.25,13.5000000000001 L 79.1954813220625,13.914110472164 L 79.0356406460551,14.3 L 78.7813708498985,14.6313708498985 L 78.45,14.8856406460551 L 78.064110472164,15.0454813220624 L 77.65,15.1 L 77.235889527836,15.0454813220624 L 76.85,14.8856406460551 L 76.5186291501015,14.6313708498985 L 76.2643593539449,14.2999999999999 L 76.1045186779375,13.9141104721642 L 76.05,13.5000000000001 M 26.3356406460551,14.3 L 26.0813708498985,14.6313708498985 L 25.75,14.8856406460551 L 25.364110472164,15.0454813220625 L 24.95,15.1 L 24.5358895278359,15.0454813220625 L 24.15,14.8856406460551 L 23.8186291501015,14.6313708498985 L 23.5643593539449,14.3 L 23.4045186779375,13.914110472164 L 23.35,13.5 L 23.4045186779375,13.085889527836 L 23.5643593539449,12.7 L 23.8186291501015,12.3686291501015 L 24.15,12.1143593539449 L 24.5358895278359,11.9545186779375 L 24.95,11.9 L 25.364110472164,11.9545186779375 L 25.75,12.1143593539449 L 26.0813708498985,12.3686291501015 L 26.3356406460551,12.7 L 26.4954813220625,13.085889527836 L 26.55,13.5 L 26.4954813220625,13.914110472164 L 26.3356406460551,14.3 M 79.25,121.1 L 79.1954813220625,121.514110472164 L 79.0356406460551,121.9 L 78.7813708498985,122.231370849898 L 78.45,122.485640646055 L 78.0641104721641,122.645481322062 L 77.65,122.7 L 77.235889527836,122.645481322062 L 76.85,122.485640646055 L 76.5186291501015,122.231370849898 L 76.2643593539449,121.9 L 76.1045186779375,121.514110472164 L 76.05,121.1 L 76.1045186779375,120.685889527836 L 76.2643593539449,120.3 L 76.5186291501015,119.968629150101 L 76.85,119.714359353945 L 77.235889527836,119.554518677937 L 77.65,119.5 L 78.064110472164,119.554518677937 L 78.45,119.714359353945 L 78.7813708498985,119.968629150101 L 79.0356406460551,120.3 L 79.1954813220625,120.685889527836 L 79.25,121.1 M 24.15,122.485640646055 L 23.8186291501015,122.231370849898 L 23.5643593539449,121.9 L 23.4045186779375,121.514110472164 L 23.35,121.1 L 23.4045186779375,120.685889527836 L 23.5643593539449,120.3 L 23.8186291501015,119.968629150101 L 24.15,119.714359353945 L 24.5358895278359,119.554518677937 L 24.95,119.5 L 25.364110472164,119.554518677937 L 25.75,119.714359353945 L 26.0813708498985,119.968629150101 L 26.3356406460551,120.3 L 26.4954813220625,120.685889527836 L 26.55,121.1 L 26.4954813220625,121.514110472164 L 26.3356406460551,121.9 L 26.0813708498985,122.231370849898 L 25.75,122.485640646055 L 25.364110472164,122.645481322062 L 24.95,122.7 L 24.535889527836,122.645481322062 L 24.15,122.485640646055 M 81.1185953646982,28.0120632435769 L 81.1185953646982,48.0120632435769 L 76.1185953646982,48.0120632435769 L 76.1185953646982,98.0120632435768 L 33.1185953646982,98.0120632435769 L 33.1185953646982,90.0120632435769 L 16.1185953646982,90.0120632435769 L 16.1185953646982,36.0120632435769 L 33.1185953646982,36.0120632435769 L 33.1185953646982,28.0120632435769 L 81.1185953646982,28.0120632435769 M 80.5685953646982,53.0120632435769 L 80.6214103339501,52.610893723668 L 80.7762559888323,52.2370632435769 L 81.022579853859,51.9160477327378 L 81.3435953646982,51.669723867711 L 81.7174258447893,51.5148782128288 L 82.1185953646982,51.4620632435769 L 82.5197648846071,51.5148782128288 L 82.8935953646982,51.669723867711 L 83.2146108755373,51.9160477327378 L 83.4609347405641,52.2370632435769 L 83.6157803954463,52.610893723668 L 83.6685953646982,53.0120632435769 L 83.6157803954462,53.4132327634858 L 83.4609347405641,53.7870632435769 L 83.2146108755373,54.108078754416 L 82.8935953646982,54.3544026194428 L 82.5197648846071,54.509248274325 L 82.1185953646982,54.5620632435769 L 81.7174258447893,54.5092482743249 L 81.3435953646982,54.3544026194428 L 81.022579853859,54.108078754416 L 80.7762559888323,53.7870632435769 L 80.6214103339501,53.4132327634858 L 80.5685953646982,53.0120632435769 M 25.6214103339501,93.0120632435769 L 25.6724256767652,92.6245632435769 L 25.8219950939046,92.2634707282028 L 26.0599256767652,91.9533935556439 L 26.3700028493242,91.7154629727833 L 26.7310953646982,91.5658935556439 L 27.1185953646982,91.5148782128288 L 27.5060953646982,91.5658935556439 L 27.8671878800723,91.7154629727833 L 28.1772650526312,91.9533935556439 L 28.4151956354918,92.2634707282028 L 28.5647650526312,92.6245632435768 L 28.6157803954463,93.0120632435769 L 28.5647650526311,93.3995632435769 L 28.4151956354918,93.7606557589509 L 28.1772650526312,94.0707329315098 L 27.8671878800722,94.3086635143705 L 27.5060953646982,94.4582329315098 L 27.1185953646982,94.5092482743249 L 26.7310953646982,94.4582329315098 L 26.3700028493242,94.3086635143705 L 26.0599256767653,94.0707329315098 L 25.8219950939046,93.7606557589509 L 25.6724256767653,93.3995632435769 L 25.6214103339501,93.0120632435769 M 25.5685953646982,33.0120632435769 L 25.6214103339502,32.610893723668 L 25.7762559888323,32.2370632435769 L 26.0225798538591,31.9160477327377 L 26.3435953646982,31.669723867711 L 26.7174258447893,31.5148782128288 L 27.1185953646982,31.4620632435769 L 27.5197648846071,31.5148782128288 L 27.8935953646982,31.669723867711 L 28.2146108755374,31.9160477327377 L 28.4609347405641,32.2370632435769 L 28.6157803954463,32.610893723668 L 28.6685953646982,33.0120632435769 L 28.6157803954463,33.4132327634858 L 28.4609347405641,33.7870632435769 L 28.2146108755374,34.108078754416 L 27.8935953646982,34.3544026194428 L 27.5197648846071,34.5092482743249 L 27.1185953646982,34.5620632435769 L 26.7174258447893,34.5092482743249 L 26.3435953646982,34.3544026194428 L 26.0225798538591,34.108078754416 L 25.7762559888323,33.7870632435769 L 25.6214103339502,33.4132327634858 L 25.5685953646982,33.0120632435769 "
  />
  <path id="face0-interior"
 style="fill:none;stroke:#FF0000;stroke-width:1;stroke-miterlimit:4;stroke-dasharray:none;stroke-linejoin:round;stroke-linecap:round"
        d="M 17.95,10.0 M 17.95,28.0 M 10.0,28.0 M 10.0,106.6 M 17.95,106.6 M 17.95,124.6 M 84.65,124.6 M 84.65,106.6 M 92.6,106.6 M 92.6,28.0 M 84.65,28.0 M 84.65,10.0 M 76.05,13.5000000000001 M 76.1045186779375,13.085889527836 M 76.2643593539449,12.6999999999999 M 76.5186291501015,12.3686291501016 M 76.85,12.1143593539447 M 77.235889527836,11.9545186779372 M 77.65,11.9000000000002 M 78.064110472164,11.9545186779374 M 78.45,12.1143593539447 M 78.7813708498985,12.3686291501015 M 79.0356406460551,12.7 M 79.1954813220625,13.0858895278361 M 79.25,13.5000000000001 M 79.1954813220625,13.914110472164 M 79.0356406460551,14.3 M 78.7813708498985,14.6313708498985 M 78.45,14.8856406460551 M 78.064110472164,15.0454813220624 M 77.65,15.1 M 77.235889527836,15.0454813220624 M 76.85,14.8856406460551 M 76.5186291501015,14.6313708498985 M 76.2643593539449,14.2999999999999 M 76.1045186779375,13.9141104721642 M 26.3356406460551,14.3 M 26.0813708498985,14.6313708498985 M 25.75,14.8856406460551 M 25.364110472164,15.0454813220625 M 24.95,15.1 M 24.5358895278359,15.0454813220625 M 24.15,14.8856406460551 M 23.8186291501015,14.6313708498985 M 23.5643593539449,14.3 M 23.4045186779375,13.914110472164 M 23.35,13.5 M 23.4045186779375,13.085889527836 M 23.5643593539449,12.7 M 23.8186291501015,12.3686291501015 M 24.15,12.1143593539449 M 24.5358895278359,11.9545186779375 M 24.95,11.9 M 25.364110472164,11.9545186779375 M 25.75,12.1143593539449 M 26.0813708498985,12.3686291501015 M 26.3356406460551,12.7 M 26.4954813220625,13.085889527836 M 26.55,13.5 M 26.4954813220625,13.914110472164 M 79.25,121.1 M 79.1954813220625,121.514110472164 M 79.0356406460551,121.9 M 78.7813708498985,122.231370849898 M 78.45,122.485640646055 M 78.0641104721641,122.645481322062 M 77.65,122.7 M 77.235889527836,122.645481322062 M 76.85,122.485640646055 M 76.5186291501015,122.231370849898 M 76.2643593539449,121.9 M 76.1045186779375,121.514110472164 M 76.05,121.1 M 76.1045186779375,120.685889527836 M 76.2643593539449,120.3 M 76.5186291501015,119.968629150101 M 76.85,119.714359353945 M 77.235889527836,119.554518677937 M 77.65,119.5 M 78.064110472164,119.554518677937 M 78.45,119.714359353945 M 78.7813708498985,119.968629150101 M 79.0356406460551,120.3 M 79.1954813220625,120.685889527836 M 24.15,122.485640646055 M 23.8186291501015,122.231370849898 M 23.5643593539449,121.9 M 23.4045186779375,121.514110472164 M 23.35,121.1 M 23.4045186779375,120.685889527836 M 23.5643593539449,120.3 M 23.8186291501015,119.968629150101 M 24.15,119.714359353945 M 24.5358895278359,119.554518677937 M 24.95,119.5 M 25.364110472164,119.554518677937 M 25.75,119.714359353945 M 26.0813708498985,119.968629150101 M 26.3356406460551,120.3 M 26.4954813220625,120.685889527836 M 26.55,121.1 M 26.4954813220625,121.514110472164 M 26.3356406460551,121.9 M 26.0813708498985,122.231370849898 M 25.75,122.485640646055 M 25.364110472164,122.645481322062 M 24.95,122.7 M 24.535889527836,122.645481322062 M 81.1185953646982,28.0120632435769 M 81.1185953646982,48.0120632435769 M 76.1185953646982,48.0120632435769 M 76.1185953646982,98.0120632435768 M 33.1185953646982,98.0120632435769 M 33.1185953646982,90.0120632435769 M 16.1185953646982,90.0120632435769 M 16.1185953646982,36.0120632435769 M 33.1185953646982,36.0120632435769 M 33.1185953646982,28.0120632435769 M 80.5685953646982,53.0120632435769 M 80.6214103339501,52.610893723668 M 80.7762559888323,52.2370632435769 M 81.022579853859,51.9160477327378 M 81.3435953646982,51.669723867711 M 81.7174258447893,51.5148782128288 M 82.1185953646982,51.4620632435769 M 82.5197648846071,51.5148782128288 M 82.8935953646982,51.669723867711 M 83.2146108755373,51.9160477327378 M 83.4609347405641,52.2370632435769 M 83.6157803954463,52.610893723668 M 83.6685953646982,53.0120632435769 M 83.6157803954462,53.4132327634858 M 83.4609347405641,53.7870632435769 M 83.2146108755373,54.108078754416 M 82.8935953646982,54.3544026194428 M 82.5197648846071,54.509248274325 M 82.1185953646982,54.5620632435769 M 81.7174258447893,54.5092482743249 M 81.3435953646982,54.3544026194428 M 81.022579853859,54.108078754416 M 80.7762559888323,53.7870632435769 M 80.6214103339501,53.4132327634858 M 25.6214103339501,93.0120632435769 M 25.6724256767652,92.6245632435769 M 25.8219950939046,92.2634707282028 M 26.0599256767652,91.9533935556439 M 26.3700028493242,91.7154629727833 M 26.7310953646982,91.5658935556439 M 27.1185953646982,91.5148782128288 M 27.5060953646982,91.5658935556439 M 27.8671878800723,91.7154629727833 M 28.1772650526312,91.9533935556439 M 28.4151956354918,92.2634707282028 M 28.5647650526312,92.6245632435768 M 28.6157803954463,93.0120632435769 M 28.5647650526311,93.3995632435769 M 28.4151956354918,93.7606557589509 M 28.1772650526312,94.0707329315098 M 27.8671878800722,94.3086635143705 M 27.5060953646982,94.4582329315098 M 27.1185953646982,94.5092482743249 M 26.7310953646982,94.4582329315098 M 26.3700028493242,94.3086635143705 M 26.0599256767653,94.0707329315098 M 25.8219950939046,93.7606557589509 M 25.6724256767653,93.3995632435769 M 25.5685953646982,33.0120632435769 M 25.6214103339502,32.610893723668 M 25.7762559888323,32.2370632435769 M 26.0225798538591,31.9160477327377 M 26.3435953646982,31.669723867711 M 26.7174258447893,31.5148782128288 M 27.1185953646982,31.4620632435769 M 27.5197648846071,31.5148782128288 M 27.8935953646982,31.669723867711 M 28.2146108755374,31.9160477327377 M 28.4609347405641,32.2370632435769 M 28.6157803954463,32.610893723668 M 28.6685953646982,33.0120632435769 M 28.6157803954463,33.4132327634858 M 28.4609347405641,33.7870632435769 M 28.2146108755374,34.108078754416 M 27.8935953646982,34.3544026194428 M 27.5197648846071,34.5092482743249 M 27.1185953646982,34.5620632435769 M 26.7174258447893,34.5092482743249 M 26.3435953646982,34.3544026194428 M 26.0225798538591,34.108078754416 M 25.7762559888323,33.7870632435769 M 25.6214103339502,33.4132327634858 "
  />
  <path id="face0-interior"
 style="fill:none;stroke:#00FF00;stroke-width:1;stroke-miterlimit:4;stroke-dasharray:none;stroke-linejoin:round;stroke-linecap:round"
        d="M 17.95,10.0 M 17.95,28.0 M 10.0,28.0 M 10.0,106.6 M 17.95,106.6 M 17.95,124.6 M 84.65,124.6 M 84.65,106.6 M 92.6,106.6 M 92.6,28.0 M 84.65,28.0 M 84.65,10.0 M 76.05,13.5000000000001 M 76.1045186779375,13.085889527836 M 76.2643593539449,12.6999999999999 M 76.5186291501015,12.3686291501016 M 76.85,12.1143593539447 M 77.235889527836,11.9545186779372 M 77.65,11.9000000000002 M 78.064110472164,11.9545186779374 M 78.45,12.1143593539447 M 78.7813708498985,12.3686291501015 M 79.0356406460551,12.7 M 79.1954813220625,13.0858895278361 M 79.25,13.5000000000001 M 79.1954813220625,13.914110472164 M 79.0356406460551,14.3 M 78.7813708498985,14.6313708498985 M 78.45,14.8856406460551 M 78.064110472164,15.0454813220624 M 77.65,15.1 M 77.235889527836,15.0454813220624 M 76.85,14.8856406460551 M 76.5186291501015,14.6313708498985 M 76.2643593539449,14.2999999999999 M 76.1045186779375,13.9141104721642 M 26.3356406460551,14.3 M 26.0813708498985,14.6313708498985 M 25.75,14.8856406460551 M 25.364110472164,15.0454813220625 M 24.95,15.1 M 24.5358895278359,15.0454813220625 M 24.15,14.8856406460551 M 23.8186291501015,14.6313708498985 M 23.5643593539449,14.3 M 23.4045186779375,13.914110472164 M 23.35,13.5 M 23.4045186779375,13.085889527836 M 23.5643593539449,12.7 M 23.8186291501015,12.3686291501015 M 24.15,12.1143593539449 M 24.5358895278359,11.9545186779375 M 24.95,11.9 M 25.364110472164,11.9545186779375 M 25.75,12.1143593539449 M 26.0813708498985,12.3686291501015 M 26.3356406460551,12.7 M 26.4954813220625,13.085889527836 M 26.55,13.5 M 26.4954813220625,13.914110472164 M 79.25,121.1 M 79.1954813220625,121.514110472164 M 79.0356406460551,121.9 M 78.7813708498985,122.231370849898 M 78.45,122.485640646055 M 78.0641104721641,122.645481322062 M 77.65,122.7 M 77.235889527836,122.645481322062 M 76.85,122.485640646055 M 76.5186291501015,122.231370849898 M 76.2643593539449,121.9 M 76.1045186779375,121.514110472164 M 76.05,121.1 M 76.1045186779375,120.685889527836 M 76.2643593539449,120.3 M 76.5186291501015,119.968629150101 M 76.85,119.714359353945 M 77.235889527836,119.554518677937 M 77.65,119.5 M 78.064110472164,119.554518677937 M 78.45,119.714359353945 M 78.7813708498985,119.968629150101 M 79.0356406460551,120.3 M 79.1954813220625,120.685889527836 M 24.15,122.485640646055 M 23.8186291501015,122.231370849898 M 23.5643593539449,121.9 M 23.4045186779375,121.514110472164 M 23.35,121.1 M 23.4045186779375,120.685889527836 M 23.5643593539449,120.3 M 23.8186291501015,119.968629150101 M 24.15,119.714359353945 M 24.5358895278359,119.554518677937 M 24.95,119.5 M 25.364110472164,119.554518677937 M 25.75,119.714359353945 M 26.0813708498985,119.968629150101 M 26.3356406460551,120.3 M 26.4954813220625,120.685889527836 M 26.55,121.1 M 26.4954813220625,121.514110472164 M 26.3356406460551,121.9 M 26.0813708498985,122.231370849898 M 25.75,122.485640646055 M 25.364110472164,122.645481322062 M 24.95,122.7 M 24.535889527836,122.645481322062 M 81.1185953646982,28.0120632435769 M 81.1185953646982,48.0120632435769 M 76.1185953646982,48.0120632435769 M 76.1185953646982,98.0120632435768 M 33.1185953646982,98.0120632435769 M 33.1185953646982,90.0120632435769 M 16.1185953646982,90.0120632435769 M 16.1185953646982,36.0120632435769 M 33.1185953646982,36.0120632435769 M 33.1185953646982,28.0120632435769 M 80.5685953646982,53.0120632435769 M 80.6214103339501,52.610893723668 M 80.7762559888323,52.2370632435769 M 81.022579853859,51.9160477327378 M 81.3435953646982,51.669723867711 M 81.7174258447893,51.5148782128288 M 82.1185953646982,51.4620632435769 M 82.5197648846071,51.5148782128288 M 82.8935953646982,51.669723867711 M 83.2146108755373,51.9160477327378 M 83.4609347405641,52.2370632435769 M 83.6157803954463,52.610893723668 M 83.6685953646982,53.0120632435769 M 83.6157803954462,53.4132327634858 M 83.4609347405641,53.7870632435769 M 83.2146108755373,54.108078754416 M 82.8935953646982,54.3544026194428 M 82.5197648846071,54.509248274325 M 82.1185953646982,54.5620632435769 M 81.7174258447893,54.5092482743249 M 81.3435953646982,54.3544026194428 M 81.022579853859,54.108078754416 M 80.7762559888323,53.7870632435769 M 80.6214103339501,53.4132327634858 M 25.6214103339501,93.0120632435769 M 25.6724256767652,92.6245632435769 M 25.8219950939046,92.2634707282028 M 26.0599256767652,91.9533935556439 M 26.3700028493242,91.7154629727833 M 26.7310953646982,91.5658935556439 M 27.1185953646982,91.5148782128288 M 27.5060953646982,91.5658935556439 M 27.8671878800723,91.7154629727833 M 28.1772650526312,91.9533935556439 M 28.4151956354918,92.2634707282028 M 28.5647650526312,92.6245632435768 M 28.6157803954463,93.0120632435769 M 28.5647650526311,93.3995632435769 M 28.4151956354918,93.7606557589509 M 28.1772650526312,94.0707329315098 M 27.8671878800722,94.3086635143705 M 27.5060953646982,94.4582329315098 M 27.1185953646982,94.5092482743249 M 26.7310953646982,94.4582329315098 M 26.3700028493242,94.3086635143705 M 26.0599256767653,94.0707329315098 M 25.8219950939046,93.7606557589509 M 25.6724256767653,93.3995632435769 M 25.5685953646982,33.0120632435769 M 25.6214103339502,32.610893723668 M 25.7762559888323,32.2370632435769 M 26.0225798538591,31.9160477327377 M 26.3435953646982,31.669723867711 M 26.7174258447893,31.5148782128288 M 27.1185953646982,31.4620632435769 M 27.5197648846071,31.5148782128288 M 27.8935953646982,31.669723867711 M 28.2146108755374,31.9160477327377 M 28.4609347405641,32.2370632435769 M 28.6157803954463,32.610893723668 M 28.6685953646982,33.0120632435769 M 28.6157803954463,33.4132327634858 M 28.4609347405641,33.7870632435769 M 28.2146108755374,34.108078754416 M 27.8935953646982,34.3544026194428 M 27.5197648846071,34.5092482743249 M 27.1185953646982,34.5620632435769 M 26.7174258447893,34.5092482743249 M 26.3435953646982,34.3544026194428 M 26.0225798538591,34.108078754416 M 25.7762559888323,33.7870632435769 M 25.6214103339502,33.4132327634858 "
  />
</svg>
