999
"DXF R12 Output" (www.mydxf.blogspot.com)
 0 
SECTION
 2 
HEADER
 9 
$ACADVER
 1 
AC1009
 9 
$EXTMIN
 10 
 0 
 20 
 0 
 9 
$EXTMAX
 10 
 8.5 
 20 
 11 
 0 
ENDSEC
 0 
SECTION
 2 
ENTITIES
0
LINE
8
Layer 1
10
5.065880
20
35.164900
11
5.065880
21
30.084900
0
LINE
8
Layer 1
10
5.065880
20
30.084900
11
2.822220
21
30.084900
0
LINE
8
Layer 1
10
2.822220
20
30.084900
11
2.822220
21
7.902230
0
LINE
8
Layer 1
10
2.822220
20
7.902230
11
5.065880
21
7.902230
0
LINE
8
Layer 1
10
5.065880
20
7.902230
11
5.065880
21
2.822240
0
LINE
8
Layer 1
10
5.065880
20
2.822240
11
23.890100
21
2.822240
0
LINE
8
Layer 1
10
23.890100
20
2.822240
11
23.890100
21
7.902230
0
LINE
8
Layer 1
10
23.890100
20
7.902230
11
26.133800
21
7.902230
0
LINE
8
Layer 1
10
26.133800
20
7.902230
11
26.133800
21
30.084900
0
LINE
8
Layer 1
10
26.133800
20
30.084900
11
23.890100
21
30.084900
0
LINE
8
Layer 1
10
23.890100
20
30.084900
11
23.890100
21
35.164900
0
LINE
8
Layer 1
10
23.890100
20
35.164900
11
5.065880
21
35.164900
0
LINE
8
Layer 1
10
21.463000
20
34.177100
11
21.478400
21
34.294000
0
LINE
8
Layer 1
10
21.478400
20
34.294000
11
21.523500
21
34.402900
0
LINE
8
Layer 1
10
21.523500
20
34.402900
11
21.595200
21
34.496400
0
LINE
8
Layer 1
10
21.595200
20
34.496400
11
21.688800
21
34.568200
0
LINE
8
Layer 1
10
21.688800
20
34.568200
11
21.797700
21
34.613300
0
LINE
8
Layer 1
10
21.797700
20
34.613300
11
21.914500
21
34.628700
0
LINE
8
Layer 1
10
21.914500
20
34.628700
11
22.031400
21
34.613300
0
LINE
8
Layer 1
10
22.031400
20
34.613300
11
22.140300
21
34.568200
0
LINE
8
Layer 1
10
22.140300
20
34.568200
11
22.233800
21
34.496400
0
LINE
8
Layer 1
10
22.233800
20
34.496400
11
22.305600
21
34.402900
0
LINE
8
Layer 1
10
22.305600
20
34.402900
11
22.350700
21
34.294000
0
LINE
8
Layer 1
10
22.350700
20
34.294000
11
22.366100
21
34.177100
0
LINE
8
Layer 1
10
22.366100
20
34.177100
11
22.350700
21
34.060200
0
LINE
8
Layer 1
10
22.350700
20
34.060200
11
22.305600
21
33.951300
0
LINE
8
Layer 1
10
22.305600
20
33.951300
11
22.233800
21
33.857800
0
LINE
8
Layer 1
10
22.233800
20
33.857800
11
22.140300
21
33.786000
0
LINE
8
Layer 1
10
22.140300
20
33.786000
11
22.031400
21
33.740900
0
LINE
8
Layer 1
10
22.031400
20
33.740900
11
21.914500
21
33.725500
0
LINE
8
Layer 1
10
21.914500
20
33.725500
11
21.797700
21
33.740900
0
LINE
8
Layer 1
10
21.797700
20
33.740900
11
21.688800
21
33.786000
0
LINE
8
Layer 1
10
21.688800
20
33.786000
11
21.595200
21
33.857800
0
LINE
8
Layer 1
10
21.595200
20
33.857800
11
21.523500
21
33.951300
0
LINE
8
Layer 1
10
21.523500
20
33.951300
11
21.478400
21
34.060200
0
LINE
8
Layer 1
10
21.478400
20
34.060200
11
21.463000
21
34.177100
0
LINE
8
Layer 1
10
7.432500
20
33.951300
11
7.360740
21
33.857800
0
LINE
8
Layer 1
10
7.360740
20
33.857800
11
7.267220
21
33.786000
0
LINE
8
Layer 1
10
7.267220
20
33.786000
11
7.158310
21
33.740900
0
LINE
8
Layer 1
10
7.158310
20
33.740900
11
7.041440
21
33.725500
0
LINE
8
Layer 1
10
7.041440
20
33.725500
11
6.924570
21
33.740900
0
LINE
8
Layer 1
10
6.924570
20
33.740900
11
6.815660
21
33.786000
0
LINE
8
Layer 1
10
6.815660
20
33.786000
11
6.722140
21
33.857800
0
LINE
8
Layer 1
10
6.722140
20
33.857800
11
6.650380
21
33.951300
0
LINE
8
Layer 1
10
6.650380
20
33.951300
11
6.605270
21
34.060200
0
LINE
8
Layer 1
10
6.605270
20
34.060200
11
6.589880
21
34.177100
0
LINE
8
Layer 1
10
6.589880
20
34.177100
11
6.605270
21
34.294000
0
LINE
8
Layer 1
10
6.605270
20
34.294000
11
6.650380
21
34.402900
0
LINE
8
Layer 1
10
6.650380
20
34.402900
11
6.722140
21
34.496400
0
LINE
8
Layer 1
10
6.722140
20
34.496400
11
6.815660
21
34.568200
0
LINE
8
Layer 1
10
6.815660
20
34.568200
11
6.924570
21
34.613300
0
LINE
8
Layer 1
10
6.924570
20
34.613300
11
7.041440
21
34.628700
0
LINE
8
Layer 1
10
7.041440
20
34.628700
11
7.158310
21
34.613300
0
LINE
8
Layer 1
10
7.158310
20
34.613300
11
7.267220
21
34.568200
0
LINE
8
Layer 1
10
7.267220
20
34.568200
11
7.360740
21
34.496400
0
LINE
8
Layer 1
10
7.360740
20
34.496400
11
7.432500
21
34.402900
0
LINE
8
Layer 1
10
7.432500
20
34.402900
11
7.477610
21
34.294000
0
LINE
8
Layer 1
10
7.477610
20
34.294000
11
7.492990
21
34.177100
0
LINE
8
Layer 1
10
7.492990
20
34.177100
11
7.477610
21
34.060200
0
LINE
8
Layer 1
10
7.477610
20
34.060200
11
7.432500
21
33.951300
0
LINE
8
Layer 1
10
22.366100
20
3.810020
11
22.350700
21
3.693140
0
LINE
8
Layer 1
10
22.350700
20
3.693140
11
22.305600
21
3.584240
0
LINE
8
Layer 1
10
22.305600
20
3.584240
11
22.233800
21
3.490720
0
LINE
8
Layer 1
10
22.233800
20
3.490720
11
22.140300
21
3.418960
0
LINE
8
Layer 1
10
22.140300
20
3.418960
11
22.031400
21
3.373850
0
LINE
8
Layer 1
10
22.031400
20
3.373850
11
21.914500
21
3.358460
0
LINE
8
Layer 1
10
21.914500
20
3.358460
11
21.797700
21
3.373850
0
LINE
8
Layer 1
10
21.797700
20
3.373850
11
21.688800
21
3.418960
0
LINE
8
Layer 1
10
21.688800
20
3.418960
11
21.595200
21
3.490720
0
LINE
8
Layer 1
10
21.595200
20
3.490720
11
21.523500
21
3.584240
0
LINE
8
Layer 1
10
21.523500
20
3.584240
11
21.478400
21
3.693140
0
LINE
8
Layer 1
10
21.478400
20
3.693140
11
21.463000
21
3.810020
0
LINE
8
Layer 1
10
21.463000
20
3.810020
11
21.478400
21
3.926890
0
LINE
8
Layer 1
10
21.478400
20
3.926890
11
21.523500
21
4.035790
0
LINE
8
Layer 1
10
21.523500
20
4.035790
11
21.595200
21
4.129310
0
LINE
8
Layer 1
10
21.595200
20
4.129310
11
21.688800
21
4.201070
0
LINE
8
Layer 1
10
21.688800
20
4.201070
11
21.797700
21
4.246180
0
LINE
8
Layer 1
10
21.797700
20
4.246180
11
21.914500
21
4.261570
0
LINE
8
Layer 1
10
21.914500
20
4.261570
11
22.031400
21
4.246180
0
LINE
8
Layer 1
10
22.031400
20
4.246180
11
22.140300
21
4.201070
0
LINE
8
Layer 1
10
22.140300
20
4.201070
11
22.233800
21
4.129310
0
LINE
8
Layer 1
10
22.233800
20
4.129310
11
22.305600
21
4.035790
0
LINE
8
Layer 1
10
22.305600
20
4.035790
11
22.350700
21
3.926890
0
LINE
8
Layer 1
10
22.350700
20
3.926890
11
22.366100
21
3.810020
0
LINE
8
Layer 1
10
6.815660
20
3.418960
11
6.722140
21
3.490720
0
LINE
8
Layer 1
10
6.722140
20
3.490720
11
6.650380
21
3.584240
0
LINE
8
Layer 1
10
6.650380
20
3.584240
11
6.605270
21
3.693140
0
LINE
8
Layer 1
10
6.605270
20
3.693140
11
6.589880
21
3.810020
0
LINE
8
Layer 1
10
6.589880
20
3.810020
11
6.605270
21
3.926890
0
LINE
8
Layer 1
10
6.605270
20
3.926890
11
6.650380
21
4.035790
0
LINE
8
Layer 1
10
6.650380
20
4.035790
11
6.722140
21
4.129310
0
LINE
8
Layer 1
10
6.722140
20
4.129310
11
6.815660
21
4.201070
0
LINE
8
Layer 1
10
6.815660
20
4.201070
11
6.924570
21
4.246180
0
LINE
8
Layer 1
10
6.924570
20
4.246180
11
7.041440
21
4.261570
0
LINE
8
Layer 1
10
7.041440
20
4.261570
11
7.158310
21
4.246180
0
LINE
8
Layer 1
10
7.158310
20
4.246180
11
7.267220
21
4.201070
0
LINE
8
Layer 1
10
7.267220
20
4.201070
11
7.360740
21
4.129310
0
LINE
8
Layer 1
10
7.360740
20
4.129310
11
7.432500
21
4.035790
0
LINE
8
Layer 1
10
7.432500
20
4.035790
11
7.477610
21
3.926890
0
LINE
8
Layer 1
10
7.477610
20
3.926890
11
7.492990
21
3.810020
0
LINE
8
Layer 1
10
7.492990
20
3.810020
11
7.477610
21
3.693140
0
LINE
8
Layer 1
10
7.477610
20
3.693140
11
7.432500
21
3.584240
0
LINE
8
Layer 1
10
7.432500
20
3.584240
11
7.360740
21
3.490720
0
LINE
8
Layer 1
10
7.360740
20
3.490720
11
7.267220
21
3.418960
0
LINE
8
Layer 1
10
7.267220
20
3.418960
11
7.158310
21
3.373850
0
LINE
8
Layer 1
10
7.158310
20
3.373850
11
7.041440
21
3.358460
0
LINE
8
Layer 1
10
7.041440
20
3.358460
11
6.924570
21
3.373850
0
LINE
8
Layer 1
10
6.924570
20
3.373850
11
6.815660
21
3.418960
0
LINE
8
Layer 1
10
22.893500
20
30.081500
11
22.893500
21
24.437000
0
LINE
8
Layer 1
10
22.893500
20
24.437000
11
21.482300
21
24.437000
0
LINE
8
Layer 1
10
21.482300
20
24.437000
11
21.482300
21
10.325900
0
LINE
8
Layer 1
10
21.482300
20
10.325900
11
9.346800
21
10.325900
0
LINE
8
Layer 1
10
9.346800
20
10.325900
11
9.346800
21
12.583700
0
LINE
8
Layer 1
10
9.346800
20
12.583700
11
4.549020
21
12.583700
0
LINE
8
Layer 1
10
4.549020
20
12.583700
11
4.549020
21
27.823700
0
LINE
8
Layer 1
10
4.549020
20
27.823700
11
9.346800
21
27.823700
0
LINE
8
Layer 1
10
9.346800
20
27.823700
11
9.346800
21
30.081500
0
LINE
8
Layer 1
10
9.346800
20
30.081500
11
22.893500
21
30.081500
0
LINE
8
Layer 1
10
22.738200
20
23.025900
11
22.753100
21
23.139100
0
LINE
8
Layer 1
10
22.753100
20
23.139100
11
22.796800
21
23.244700
0
LINE
8
Layer 1
10
22.796800
20
23.244700
11
22.866400
21
23.335200
0
LINE
8
Layer 1
10
22.866400
20
23.335200
11
22.957000
21
23.404800
0
LINE
8
Layer 1
10
22.957000
20
23.404800
11
23.062500
21
23.448500
0
LINE
8
Layer 1
10
23.062500
20
23.448500
11
23.175700
21
23.463400
0
LINE
8
Layer 1
10
23.175700
20
23.463400
11
23.288900
21
23.448500
0
LINE
8
Layer 1
10
23.288900
20
23.448500
11
23.394400
21
23.404800
0
LINE
8
Layer 1
10
23.394400
20
23.404800
11
23.485000
21
23.335200
0
LINE
8
Layer 1
10
23.485000
20
23.335200
11
23.554500
21
23.244700
0
LINE
8
Layer 1
10
23.554500
20
23.244700
11
23.598200
21
23.139100
0
LINE
8
Layer 1
10
23.598200
20
23.139100
11
23.613100
21
23.025900
0
LINE
8
Layer 1
10
23.613100
20
23.025900
11
23.598200
21
22.912700
0
LINE
8
Layer 1
10
23.598200
20
22.912700
11
23.554500
21
22.807200
0
LINE
8
Layer 1
10
23.554500
20
22.807200
11
23.485000
21
22.716600
0
LINE
8
Layer 1
10
23.485000
20
22.716600
11
23.394400
21
22.647100
0
LINE
8
Layer 1
10
23.394400
20
22.647100
11
23.288900
21
22.603400
0
LINE
8
Layer 1
10
23.288900
20
22.603400
11
23.175700
21
22.588500
0
LINE
8
Layer 1
10
23.175700
20
22.588500
11
23.062500
21
22.603400
0
LINE
8
Layer 1
10
23.062500
20
22.603400
11
22.957000
21
22.647100
0
LINE
8
Layer 1
10
22.957000
20
22.647100
11
22.866400
21
22.716600
0
LINE
8
Layer 1
10
22.866400
20
22.716600
11
22.796800
21
22.807200
0
LINE
8
Layer 1
10
22.796800
20
22.807200
11
22.753100
21
22.912700
0
LINE
8
Layer 1
10
22.753100
20
22.912700
11
22.738200
21
23.025900
0
LINE
8
Layer 1
10
7.230930
20
11.737000
11
7.245320
21
11.846400
0
LINE
8
Layer 1
10
7.245320
20
11.846400
11
7.287540
21
11.948300
0
LINE
8
Layer 1
10
7.287540
20
11.948300
11
7.354680
21
12.035800
0
LINE
8
Layer 1
10
7.354680
20
12.035800
11
7.442190
21
12.103000
0
LINE
8
Layer 1
10
7.442190
20
12.103000
11
7.544100
21
12.145200
0
LINE
8
Layer 1
10
7.544100
20
12.145200
11
7.653460
21
12.159600
0
LINE
8
Layer 1
10
7.653460
20
12.159600
11
7.762830
21
12.145200
0
LINE
8
Layer 1
10
7.762830
20
12.145200
11
7.864730
21
12.103000
0
LINE
8
Layer 1
10
7.864730
20
12.103000
11
7.952240
21
12.035800
0
LINE
8
Layer 1
10
7.952240
20
12.035800
11
8.019390
21
11.948300
0
LINE
8
Layer 1
10
8.019390
20
11.948300
11
8.061610
21
11.846400
0
LINE
8
Layer 1
10
8.061610
20
11.846400
11
8.076000
21
11.737000
0
LINE
8
Layer 1
10
8.076000
20
11.737000
11
8.061610
21
11.627700
0
LINE
8
Layer 1
10
8.061610
20
11.627700
11
8.019390
21
11.525800
0
LINE
8
Layer 1
10
8.019390
20
11.525800
11
7.952240
21
11.438300
0
LINE
8
Layer 1
10
7.952240
20
11.438300
11
7.864730
21
11.371100
0
LINE
8
Layer 1
10
7.864730
20
11.371100
11
7.762830
21
11.328900
0
LINE
8
Layer 1
10
7.762830
20
11.328900
11
7.653460
21
11.314500
0
LINE
8
Layer 1
10
7.653460
20
11.314500
11
7.544100
21
11.328900
0
LINE
8
Layer 1
10
7.544100
20
11.328900
11
7.442190
21
11.371100
0
LINE
8
Layer 1
10
7.442190
20
11.371100
11
7.354680
21
11.438300
0
LINE
8
Layer 1
10
7.354680
20
11.438300
11
7.287540
21
11.525800
0
LINE
8
Layer 1
10
7.287540
20
11.525800
11
7.245320
21
11.627700
0
LINE
8
Layer 1
10
7.245320
20
11.627700
11
7.230930
21
11.737000
0
LINE
8
Layer 1
10
7.216020
20
28.670400
11
7.230930
21
28.783600
0
LINE
8
Layer 1
10
7.230930
20
28.783600
11
7.274630
21
28.889100
0
LINE
8
Layer 1
10
7.274630
20
28.889100
11
7.344140
21
28.979700
0
LINE
8
Layer 1
10
7.344140
20
28.979700
11
7.434740
21
29.049200
0
LINE
8
Layer 1
10
7.434740
20
29.049200
11
7.540250
21
29.092900
0
LINE
8
Layer 1
10
7.540250
20
29.092900
11
7.653460
21
29.107800
0
LINE
8
Layer 1
10
7.653460
20
29.107800
11
7.766680
21
29.092900
0
LINE
8
Layer 1
10
7.766680
20
29.092900
11
7.872190
21
29.049200
0
LINE
8
Layer 1
10
7.872190
20
29.049200
11
7.962780
21
28.979700
0
LINE
8
Layer 1
10
7.962780
20
28.979700
11
8.032300
21
28.889100
0
LINE
8
Layer 1
10
8.032300
20
28.889100
11
8.076000
21
28.783600
0
LINE
8
Layer 1
10
8.076000
20
28.783600
11
8.090910
21
28.670400
0
LINE
8
Layer 1
10
8.090910
20
28.670400
11
8.076000
21
28.557200
0
LINE
8
Layer 1
10
8.076000
20
28.557200
11
8.032300
21
28.451600
0
LINE
8
Layer 1
10
8.032300
20
28.451600
11
7.962780
21
28.361000
0
LINE
8
Layer 1
10
7.962780
20
28.361000
11
7.872190
21
28.291500
0
LINE
8
Layer 1
10
7.872190
20
28.291500
11
7.766680
21
28.247800
0
LINE
8
Layer 1
10
7.766680
20
28.247800
11
7.653460
21
28.232900
0
LINE
8
Layer 1
10
7.653460
20
28.232900
11
7.540250
21
28.247800
0
LINE
8
Layer 1
10
7.540250
20
28.247800
11
7.434740
21
28.291500
0
LINE
8
Layer 1
10
7.434740
20
28.291500
11
7.344140
21
28.361000
0
LINE
8
Layer 1
10
7.344140
20
28.361000
11
7.274630
21
28.451600
0
LINE
8
Layer 1
10
7.274630
20
28.451600
11
7.230930
21
28.557200
0
LINE
8
Layer 1
10
7.230930
20
28.557200
11
7.216020
21
28.670400
 0 
ENDSEC
 0 
EOF