<?xml version="1.0" encoding="UTF-8"?>
<!-- Generator: Circuit Diagram, cdlibrary.dll 1.0.0.0 -->
<!DOCTYPE svg PUBLIC "-//W3C//DTD SVG 1.1//EN" "http://www.w3.org/Graphics/SVG/1.1/DTD/svg11.dtd">
<svg version="1.1" width="680" height="440" xmlns="http://www.w3.org/2000/svg">
	<path d="M 165,194 L 175,194 L 170,184 L 165,194" style="fill-opacity:0;fill:rgb(0, 0, 0);stroke:rgb(0, 0, 0);stroke-linecap:square;stroke-width:2"/>
	<line x1="170" y1="194" x2="170" y2="200" style="stroke:rgb(0, 0, 0);stroke-linecap:square;stroke-width:2"/>
	<text x="164" y="188" style="font-family:Arial;font-size:12px;text-anchor:end" dominant-baseline="middle" transform="rotate(0, 164, 188)">+3.3V</text>
	<line x1="170" y1="200" x2="190" y2="200" style="stroke:rgb(0, 0, 0);stroke-linecap:square;stroke-width:2"/>
	<line x1="250" y1="290" x2="250" y2="370" style="stroke:rgb(0, 0, 0);stroke-linecap:square;stroke-width:2"/>
	<line x1="190" y1="370" x2="250" y2="370" style="stroke:rgb(0, 0, 0);stroke-linecap:square;stroke-width:2"/>
	<line x1="190" y1="310" x2="190" y2="370" style="stroke:rgb(0, 0, 0);stroke-linecap:square;stroke-width:2"/>
	<path d="M 190,310 M 204,310 L 190,332 L 176,310" style="fill-opacity:0;fill:rgb(0, 0, 0);stroke:rgb(0, 0, 0);stroke-linecap:square;stroke-width:2"/>
	<line x1="310" y1="290" x2="310" y2="370" style="stroke:rgb(0, 0, 0);stroke-linecap:square;stroke-width:2"/>
	<line x1="270" y1="290" x2="270" y2="370" style="stroke:rgb(0, 0, 0);stroke-linecap:square;stroke-width:2"/>
	<line x1="270" y1="370" x2="281" y2="370" style="stroke:rgb(0, 0, 0);stroke-linecap:square;stroke-width:2"/>
	<line x1="281" y1="360" x2="281" y2="380" style="stroke:rgb(0, 0, 0);stroke-linecap:square;stroke-width:2"/>
	<line x1="287" y1="365" x2="287" y2="375" style="stroke:rgb(0, 0, 0);stroke-linecap:square;stroke-width:2"/>
	<line x1="293" y1="360" x2="293" y2="380" style="stroke:rgb(0, 0, 0);stroke-linecap:square;stroke-width:2"/>
	<line x1="299" y1="365" x2="299" y2="375" style="stroke:rgb(0, 0, 0);stroke-linecap:square;stroke-width:2"/>
	<line x1="299" y1="370" x2="310" y2="370" style="stroke:rgb(0, 0, 0);stroke-linecap:square;stroke-width:2"/>
	<text x="290" y="358" style="font-family:Arial;font-size:12px;text-anchor:middle" dominant-baseline="baseline" transform="rotate(0, 290, 358)">+3.7V</text>
	<line x1="140" y1="270" x2="140" y2="290" style="stroke:rgb(0, 0, 0);stroke-linecap:square;stroke-width:2"/>
	<line x1="140" y1="290" x2="140" y2="298" style="stroke:rgb(0, 0, 0);stroke-linecap:square;stroke-width:2"/>
	<line x1="132" y1="298" x2="148" y2="298" style="stroke:rgb(0, 0, 0);stroke-linecap:square;stroke-width:2"/>
	<line x1="135" y1="304" x2="145" y2="304" style="stroke:rgb(0, 0, 0);stroke-linecap:square;stroke-width:2"/>
	<line x1="138" y1="310" x2="142" y2="310" style="stroke:rgb(0, 0, 0);stroke-linecap:square;stroke-width:2"/>
	<line x1="190" y1="120" x2="415" y2="120" style="stroke:rgb(0, 0, 0);stroke-linecap:square;stroke-width:2"/>
	<path d="M 415,120 L 415,117 L 420,120 L 415,123 L 415,120" style="fill-opacity:1;fill:rgb(0, 0, 0);stroke:rgb(0, 0, 0);stroke-linecap:square;stroke-width:2"/>
	<text x="305" y="108" style="font-family:Arial;font-size:11px;text-anchor:middle" dominant-baseline="middle" transform="rotate(0, 305, 108)">3.3V</text>
	<line x1="340" y1="260" x2="385" y2="260" style="stroke:rgb(0, 0, 0);stroke-linecap:square;stroke-width:2"/>
	<path d="M 385,260 L 385,257 L 390,260 L 385,263 L 385,260" style="fill-opacity:1;fill:rgb(0, 0, 0);stroke:rgb(0, 0, 0);stroke-linecap:square;stroke-width:2"/>
	<text x="365" y="248" style="font-family:Arial;font-size:11px;text-anchor:middle" dominant-baseline="middle" transform="rotate(0, 365, 248)"/>
	<line x1="380" y1="250" x2="345" y2="250" style="stroke:rgb(0, 0, 0);stroke-linecap:square;stroke-width:2"/>
	<path d="M 345,250 L 345,247 L 340,250 L 345,253 L 345,250" style="fill-opacity:1;fill:rgb(0, 0, 0);stroke:rgb(0, 0, 0);stroke-linecap:square;stroke-width:2"/>
	<text x="360" y="238" style="font-family:Arial;font-size:11px;text-anchor:middle" dominant-baseline="middle" transform="rotate(0, 360, 238)">i1</text>
	<line x1="190" y1="210" x2="190" y2="240" style="stroke:rgb(0, 0, 0);stroke-linecap:square;stroke-width:2"/>
	<line x1="190" y1="210" x2="220" y2="210" style="stroke:rgb(0, 0, 0);stroke-linecap:square;stroke-width:2"/>
	<line x1="190" y1="170" x2="190" y2="180" style="stroke:rgb(0, 0, 0);stroke-linecap:square;stroke-width:2"/>
	<line x1="140" y1="240" x2="190" y2="240" style="stroke:rgb(0, 0, 0);stroke-linecap:square;stroke-width:2"/>
	<line x1="220" y1="260" x2="145" y2="260" style="stroke:rgb(0, 0, 0);stroke-linecap:square;stroke-width:2"/>
	<path d="M 145,260 L 145,257 L 140,260 L 145,263 L 145,260" style="fill-opacity:1;fill:rgb(0, 0, 0);stroke:rgb(0, 0, 0);stroke-linecap:square;stroke-width:2"/>
	<text x="180" y="248" style="font-family:Arial;font-size:11px;text-anchor:middle" dominant-baseline="middle" transform="rotate(0, 180, 248)"/>
	<line x1="170" y1="50" x2="205" y2="50" style="stroke:rgb(0, 0, 0);stroke-linecap:square;stroke-width:2"/>
	<path d="M 205,50 L 205,47 L 210,50 L 205,53 L 205,50" style="fill-opacity:1;fill:rgb(0, 0, 0);stroke:rgb(0, 0, 0);stroke-linecap:square;stroke-width:2"/>
	<text x="190" y="38" style="font-family:Arial;font-size:11px;text-anchor:middle" dominant-baseline="middle" transform="rotate(0, 190, 38)">220V</text>
	<text x="80" y="220" style="font-family:Arial;font-size:11px;text-anchor:middle" dominant-baseline="middle" transform="rotate(0, 80, 220)">GPS ATGM33</text>
	<rect x="30" y="230" width="100" height="50" style="fill-opacity:0;fill:rgb(0, 0, 0);stroke:rgb(0, 0, 0);stroke-width:2"/>
	<line x1="130" y1="240" x2="140" y2="240" style="stroke:rgb(0, 0, 0);stroke-linecap:square;stroke-width:2"/>
	<text x="126" y="240" style="font-family:Arial;font-size:11px;text-anchor:end" dominant-baseline="middle" transform="rotate(0, 126, 240)">3.3V</text>
	<line x1="130" y1="250" x2="140" y2="250" style="stroke:rgb(0, 0, 0);stroke-linecap:square;stroke-width:2"/>
	<text x="126" y="250" style="font-family:Arial;font-size:11px;text-anchor:end" dominant-baseline="middle" transform="rotate(0, 126, 250)">Tx</text>
	<line x1="130" y1="260" x2="140" y2="260" style="stroke:rgb(0, 0, 0);stroke-linecap:square;stroke-width:2"/>
	<text x="126" y="260" style="font-family:Arial;font-size:11px;text-anchor:end" dominant-baseline="middle" transform="rotate(0, 126, 260)">Rx</text>
	<line x1="130" y1="270" x2="140" y2="270" style="stroke:rgb(0, 0, 0);stroke-linecap:square;stroke-width:2"/>
	<text x="126" y="270" style="font-family:Arial;font-size:11px;text-anchor:end" dominant-baseline="middle" transform="rotate(0, 126, 270)">gnd</text>
	<line x1="150" y1="40" x2="150" y2="38" style="stroke:rgb(0, 0, 0);stroke-linecap:square;stroke-width:2"/>
	<ellipse cx="150" cy="50" rx="12" ry="12" style="fill-opacity:0;fill:rgb(0, 0, 0);stroke:rgb(0, 0, 0);stroke-width:2"/>
	<line x1="150" y1="62" x2="150" y2="60" style="stroke:rgb(0, 0, 0);stroke-linecap:square;stroke-width:2"/>
	<path d="M 150,50 M 142,50 A 4,4 180 1 1 150,50 A 4,4 180 1 0 158,50" style="fill-opacity:0;fill:rgb(0, 0, 0);stroke:rgb(0, 0, 0);stroke-linecap:square;stroke-width:2"/>
	<line x1="400" y1="180" x2="400" y2="198" style="stroke:rgb(0, 0, 0);stroke-linecap:square;stroke-width:2"/>
	<line x1="392" y1="198" x2="408" y2="198" style="stroke:rgb(0, 0, 0);stroke-linecap:square;stroke-width:2"/>
	<line x1="395" y1="204" x2="405" y2="204" style="stroke:rgb(0, 0, 0);stroke-linecap:square;stroke-width:2"/>
	<line x1="398" y1="210" x2="402" y2="210" style="stroke:rgb(0, 0, 0);stroke-linecap:square;stroke-width:2"/>
	<line x1="140" y1="250" x2="215" y2="250" style="stroke:rgb(0, 0, 0);stroke-linecap:square;stroke-width:2"/>
	<path d="M 215,250 L 215,247 L 220,250 L 215,253 L 215,250" style="fill-opacity:1;fill:rgb(0, 0, 0);stroke:rgb(0, 0, 0);stroke-linecap:square;stroke-width:2"/>
	<text x="180" y="238" style="font-family:Arial;font-size:11px;text-anchor:middle" dominant-baseline="middle" transform="rotate(0, 180, 238)"/>
	<line x1="450" y1="160" x2="450" y2="168" style="stroke:rgb(0, 0, 0);stroke-linecap:square;stroke-width:2"/>
	<line x1="442" y1="168" x2="458" y2="168" style="stroke:rgb(0, 0, 0);stroke-linecap:square;stroke-width:2"/>
	<line x1="445" y1="174" x2="455" y2="174" style="stroke:rgb(0, 0, 0);stroke-linecap:square;stroke-width:2"/>
	<line x1="448" y1="180" x2="452" y2="180" style="stroke:rgb(0, 0, 0);stroke-linecap:square;stroke-width:2"/>
	<line x1="450" y1="150" x2="450" y2="160" style="stroke:rgb(0, 0, 0);stroke-linecap:square;stroke-width:2"/>
	<line x1="340" y1="180" x2="400" y2="180" style="stroke:rgb(0, 0, 0);stroke-linecap:square;stroke-width:2"/>
	<line x1="260" y1="80" x2="260" y2="88" style="stroke:rgb(0, 0, 0);stroke-linecap:square;stroke-width:2"/>
	<line x1="252" y1="88" x2="268" y2="88" style="stroke:rgb(0, 0, 0);stroke-linecap:square;stroke-width:2"/>
	<line x1="255" y1="94" x2="265" y2="94" style="stroke:rgb(0, 0, 0);stroke-linecap:square;stroke-width:2"/>
	<line x1="258" y1="100" x2="262" y2="100" style="stroke:rgb(0, 0, 0);stroke-linecap:square;stroke-width:2"/>
	<line x1="190" y1="200" x2="220" y2="200" style="stroke:rgb(0, 0, 0);stroke-linecap:square;stroke-width:2"/>
	<line x1="480" y1="120" x2="495" y2="120" style="stroke:rgb(0, 0, 0);stroke-linecap:square;stroke-width:2"/>
	<path d="M 495,120 L 495,117 L 500,120 L 495,123 L 495,120" style="fill-opacity:1;fill:rgb(0, 0, 0);stroke:rgb(0, 0, 0);stroke-linecap:square;stroke-width:2"/>
	<text x="490" y="108" style="font-family:Arial;font-size:11px;text-anchor:middle" dominant-baseline="middle" transform="rotate(0, 490, 108)">5V</text>
	<line x1="190" y1="170" x2="190" y2="200" style="stroke:rgb(0, 0, 0);stroke-linecap:square;stroke-width:2"/>
	<line x1="190" y1="120" x2="190" y2="170" style="stroke:rgb(0, 0, 0);stroke-linecap:square;stroke-width:2"/>
	<line x1="190" y1="170" x2="190" y2="180" style="stroke:rgb(0, 0, 0);stroke-linecap:square;stroke-width:2"/>
	<line x1="340" y1="190" x2="370" y2="190" style="stroke:rgb(0, 0, 0);stroke-linecap:square;stroke-width:2"/>
	<line x1="370" y1="50" x2="370" y2="190" style="stroke:rgb(0, 0, 0);stroke-linecap:square;stroke-width:2"/>
	<line x1="290" y1="50" x2="370" y2="50" style="stroke:rgb(0, 0, 0);stroke-linecap:square;stroke-width:2"/>
	<line x1="290" y1="50" x2="325" y2="50" style="stroke:rgb(0, 0, 0);stroke-linecap:square;stroke-width:2"/>
	<path d="M 325,50 L 325,47 L 330,50 L 325,53 L 325,50" style="fill-opacity:1;fill:rgb(0, 0, 0);stroke:rgb(0, 0, 0);stroke-linecap:square;stroke-width:2"/>
	<text x="310" y="38" style="font-family:Arial;font-size:11px;text-anchor:middle" dominant-baseline="middle" transform="rotate(0, 310, 38)">5V</text>
	<line x1="210" y1="50" x2="235" y2="50" style="stroke:rgb(0, 0, 0);stroke-linecap:square;stroke-width:2"/>
	<line x1="285" y1="50" x2="310" y2="50" style="stroke:rgb(0, 0, 0);stroke-linecap:square;stroke-width:2"/>
	<rect x="235" y="25" width="50" height="50" style="fill-opacity:0;fill:rgb(0, 0, 0);stroke:rgb(0, 0, 0);stroke-width:2"/>
	<line x1="236" y1="74" x2="284" y2="26" style="stroke:rgb(0, 0, 0);stroke-linecap:square;stroke-width:2"/>
	<path d="M 250,40 M 242,40 A 4,4 180 1 1 250,40 A 4,4 180 1 0 258,40" style="fill-opacity:0;fill:rgb(0, 0, 0);stroke:rgb(0, 0, 0);stroke-linecap:square;stroke-width:2"/>
	<line x1="262" y1="60" x2="279" y2="60" style="stroke:rgb(0, 0, 0);stroke-linecap:square;stroke-width:2"/>
	<line x1="262" y1="64" x2="265" y2="64" style="stroke:rgb(0, 0, 0);stroke-linecap:square;stroke-width:2"/>
	<line x1="269" y1="64" x2="272" y2="64" style="stroke:rgb(0, 0, 0);stroke-linecap:square;stroke-width:2"/>
	<line x1="276" y1="64" x2="279" y2="64" style="stroke:rgb(0, 0, 0);stroke-linecap:square;stroke-width:2"/>
	<path d="M 425,360 L 435,360 L 430,350 L 425,360" style="fill-opacity:0;fill:rgb(0, 0, 0);stroke:rgb(0, 0, 0);stroke-linecap:square;stroke-width:2"/>
	<text x="424" y="354" style="font-family:Arial;font-size:12px;text-anchor:end" dominant-baseline="middle" transform="rotate(0, 424, 354)">+3.3V</text>
	<line x1="430" y1="360" x2="430" y2="370" style="stroke:rgb(0, 0, 0);stroke-linecap:square;stroke-width:2"/>
	<line x1="360" y1="380" x2="430" y2="380" style="stroke:rgb(0, 0, 0);stroke-linecap:square;stroke-width:2"/>
	<line x1="360" y1="270" x2="360" y2="380" style="stroke:rgb(0, 0, 0);stroke-linecap:square;stroke-width:2"/>
	<line x1="340" y1="270" x2="360" y2="270" style="stroke:rgb(0, 0, 0);stroke-linecap:square;stroke-width:2"/>
	<line x1="420" y1="390" x2="430" y2="390" style="stroke:rgb(0, 0, 0);stroke-linecap:square;stroke-width:2"/>
	<line x1="418" y1="390" x2="418" y2="396" style="stroke:rgb(0, 0, 0);stroke-linecap:square;stroke-width:2"/>
	<line x1="410" y1="396" x2="426" y2="396" style="stroke:rgb(0, 0, 0);stroke-linecap:square;stroke-width:2"/>
	<line x1="413" y1="402" x2="423" y2="402" style="stroke:rgb(0, 0, 0);stroke-linecap:square;stroke-width:2"/>
	<line x1="416" y1="408" x2="420" y2="408" style="stroke:rgb(0, 0, 0);stroke-linecap:square;stroke-width:2"/>
	<text x="490" y="350" style="font-family:Arial;font-size:11px;text-anchor:middle" dominant-baseline="middle" transform="rotate(0, 490, 350)">AM2305</text>
	<rect x="440" y="360" width="100" height="40" style="fill-opacity:0;fill:rgb(0, 0, 0);stroke:rgb(0, 0, 0);stroke-width:2"/>
	<line x1="430" y1="370" x2="440" y2="370" style="stroke:rgb(0, 0, 0);stroke-linecap:square;stroke-width:2"/>
	<text x="444" y="370" style="font-family:Arial;font-size:11px;text-anchor:start" dominant-baseline="middle" transform="rotate(0, 444, 370)">3v</text>
	<line x1="430" y1="380" x2="440" y2="380" style="stroke:rgb(0, 0, 0);stroke-linecap:square;stroke-width:2"/>
	<text x="444" y="380" style="font-family:Arial;font-size:11px;text-anchor:start" dominant-baseline="middle" transform="rotate(0, 444, 380)">data</text>
	<line x1="430" y1="390" x2="440" y2="390" style="stroke:rgb(0, 0, 0);stroke-linecap:square;stroke-width:2"/>
	<text x="444" y="390" style="font-family:Arial;font-size:11px;text-anchor:start" dominant-baseline="middle" transform="rotate(0, 444, 390)">gnd</text>
	<line x1="480" y1="260" x2="480" y2="290" style="stroke:rgb(0, 0, 0);stroke-linecap:square;stroke-width:2"/>
	<line x1="530" y1="270" x2="540" y2="270" style="stroke:rgb(0, 0, 0);stroke-linecap:square;stroke-width:2"/>
	<line x1="528" y1="270" x2="528" y2="276" style="stroke:rgb(0, 0, 0);stroke-linecap:square;stroke-width:2"/>
	<line x1="520" y1="276" x2="536" y2="276" style="stroke:rgb(0, 0, 0);stroke-linecap:square;stroke-width:2"/>
	<line x1="523" y1="282" x2="533" y2="282" style="stroke:rgb(0, 0, 0);stroke-linecap:square;stroke-width:2"/>
	<line x1="526" y1="288" x2="530" y2="288" style="stroke:rgb(0, 0, 0);stroke-linecap:square;stroke-width:2"/>
	<line x1="480" y1="120" x2="520" y2="120" style="stroke:rgb(0, 0, 0);stroke-linecap:square;stroke-width:2"/>
	<line x1="520" y1="240" x2="540" y2="240" style="stroke:rgb(0, 0, 0);stroke-linecap:square;stroke-width:2"/>
	<line x1="520" y1="120" x2="520" y2="160" style="stroke:rgb(0, 0, 0);stroke-linecap:square;stroke-width:2"/>
	<line x1="520" y1="200" x2="520" y2="240" style="stroke:rgb(0, 0, 0);stroke-linecap:square;stroke-width:2"/>
	<rect x="512" y="160" width="16" height="40" style="fill-opacity:0;fill:rgb(0, 0, 0);stroke:rgb(0, 0, 0);stroke-width:2"/>
	<text x="506" y="180" style="font-family:Arial;font-size:11px;text-anchor:end" dominant-baseline="middle" transform="rotate(0, 506, 180)">4.7 Ω</text>
	<line x1="390" y1="260" x2="390" y2="290" style="stroke:rgb(0, 0, 0);stroke-linecap:square;stroke-width:2"/>
	<line x1="480" y1="260" x2="540" y2="260" style="stroke:rgb(0, 0, 0);stroke-linecap:square;stroke-width:2"/>
	<line x1="480" y1="250" x2="540" y2="250" style="stroke:rgb(0, 0, 0);stroke-linecap:square;stroke-width:2"/>
	<line x1="420" y1="120" x2="425" y2="120" style="stroke:rgb(0, 0, 0);stroke-linecap:square;stroke-width:2"/>
	<line x1="475" y1="120" x2="480" y2="120" style="stroke:rgb(0, 0, 0);stroke-linecap:square;stroke-width:2"/>
	<rect x="425" y="95" width="50" height="50" style="fill-opacity:0;fill:rgb(0, 0, 0);stroke:rgb(0, 0, 0);stroke-width:2"/>
	<line x1="426" y1="144" x2="474" y2="96" style="stroke:rgb(0, 0, 0);stroke-linecap:square;stroke-width:2"/>
	<line x1="448" y1="106" x2="431" y2="106" style="stroke:rgb(0, 0, 0);stroke-linecap:square;stroke-width:2"/>
	<line x1="448" y1="110" x2="445" y2="110" style="stroke:rgb(0, 0, 0);stroke-linecap:square;stroke-width:2"/>
	<line x1="441" y1="110" x2="438" y2="110" style="stroke:rgb(0, 0, 0);stroke-linecap:square;stroke-width:2"/>
	<line x1="434" y1="110" x2="431" y2="110" style="stroke:rgb(0, 0, 0);stroke-linecap:square;stroke-width:2"/>
	<line x1="452" y1="130" x2="469" y2="130" style="stroke:rgb(0, 0, 0);stroke-linecap:square;stroke-width:2"/>
	<line x1="452" y1="134" x2="455" y2="134" style="stroke:rgb(0, 0, 0);stroke-linecap:square;stroke-width:2"/>
	<line x1="459" y1="134" x2="462" y2="134" style="stroke:rgb(0, 0, 0);stroke-linecap:square;stroke-width:2"/>
	<line x1="466" y1="134" x2="469" y2="134" style="stroke:rgb(0, 0, 0);stroke-linecap:square;stroke-width:2"/>
	<text x="600" y="220" style="font-family:Arial;font-size:11px;text-anchor:middle" dominant-baseline="middle" transform="rotate(0, 600, 220)">SDS011</text>
	<rect x="550" y="230" width="100" height="50" style="fill-opacity:0;fill:rgb(0, 0, 0);stroke:rgb(0, 0, 0);stroke-width:2"/>
	<line x1="540" y1="240" x2="550" y2="240" style="stroke:rgb(0, 0, 0);stroke-linecap:square;stroke-width:2"/>
	<text x="554" y="240" style="font-family:Arial;font-size:11px;text-anchor:start" dominant-baseline="middle" transform="rotate(0, 554, 240)">5v</text>
	<line x1="540" y1="250" x2="550" y2="250" style="stroke:rgb(0, 0, 0);stroke-linecap:square;stroke-width:2"/>
	<text x="554" y="250" style="font-family:Arial;font-size:11px;text-anchor:start" dominant-baseline="middle" transform="rotate(0, 554, 250)">Tx</text>
	<line x1="540" y1="260" x2="550" y2="260" style="stroke:rgb(0, 0, 0);stroke-linecap:square;stroke-width:2"/>
	<text x="554" y="260" style="font-family:Arial;font-size:11px;text-anchor:start" dominant-baseline="middle" transform="rotate(0, 554, 260)">Rx</text>
	<line x1="540" y1="270" x2="550" y2="270" style="stroke:rgb(0, 0, 0);stroke-linecap:square;stroke-width:2"/>
	<text x="554" y="270" style="font-family:Arial;font-size:11px;text-anchor:start" dominant-baseline="middle" transform="rotate(0, 554, 270)">gnd</text>
	<text x="280" y="160" style="font-family:Arial;font-size:11px;text-anchor:middle" dominant-baseline="middle" transform="rotate(0, 280, 160)">Heltec Cube Cell</text>
	<rect x="230" y="170" width="100" height="120" style="fill-opacity:0;fill:rgb(0, 0, 0);stroke:rgb(0, 0, 0);stroke-width:2"/>
	<line x1="220" y1="180" x2="230" y2="180" style="stroke:rgb(0, 0, 0);stroke-linecap:square;stroke-width:2"/>
	<text x="234" y="180" style="font-family:Arial;font-size:11px;text-anchor:start" dominant-baseline="middle" transform="rotate(0, 234, 180)">gnd</text>
	<line x1="330" y1="180" x2="340" y2="180" style="stroke:rgb(0, 0, 0);stroke-linecap:square;stroke-width:2"/>
	<text x="326" y="180" style="font-family:Arial;font-size:11px;text-anchor:end" dominant-baseline="middle" transform="rotate(0, 326, 180)">gnd</text>
	<line x1="220" y1="190" x2="230" y2="190" style="stroke:rgb(0, 0, 0);stroke-linecap:square;stroke-width:2"/>
	<text x="234" y="190" style="font-family:Arial;font-size:11px;text-anchor:start" dominant-baseline="middle" transform="rotate(0, 234, 190)"> </text>
	<line x1="330" y1="190" x2="340" y2="190" style="stroke:rgb(0, 0, 0);stroke-linecap:square;stroke-width:2"/>
	<text x="326" y="190" style="font-family:Arial;font-size:11px;text-anchor:end" dominant-baseline="middle" transform="rotate(0, 326, 190)">5v in</text>
	<line x1="220" y1="200" x2="230" y2="200" style="stroke:rgb(0, 0, 0);stroke-linecap:square;stroke-width:2"/>
	<text x="234" y="200" style="font-family:Arial;font-size:11px;text-anchor:start" dominant-baseline="middle" transform="rotate(0, 234, 200)">3v3 out</text>
	<line x1="330" y1="200" x2="340" y2="200" style="stroke:rgb(0, 0, 0);stroke-linecap:square;stroke-width:2"/>
	<text x="326" y="200" style="font-family:Arial;font-size:11px;text-anchor:end" dominant-baseline="middle" transform="rotate(0, 326, 200)">  </text>
	<line x1="220" y1="210" x2="230" y2="210" style="stroke:rgb(0, 0, 0);stroke-linecap:square;stroke-width:2"/>
	<text x="234" y="210" style="font-family:Arial;font-size:11px;text-anchor:start" dominant-baseline="middle" transform="rotate(0, 234, 210)"> Vext</text>
	<line x1="330" y1="210" x2="340" y2="210" style="stroke:rgb(0, 0, 0);stroke-linecap:square;stroke-width:2"/>
	<text x="326" y="210" style="font-family:Arial;font-size:11px;text-anchor:end" dominant-baseline="middle" transform="rotate(0, 326, 210)"> </text>
	<line x1="220" y1="220" x2="230" y2="220" style="stroke:rgb(0, 0, 0);stroke-linecap:square;stroke-width:2"/>
	<text x="234" y="220" style="font-family:Arial;font-size:11px;text-anchor:start" dominant-baseline="middle" transform="rotate(0, 234, 220)"> </text>
	<line x1="330" y1="220" x2="340" y2="220" style="stroke:rgb(0, 0, 0);stroke-linecap:square;stroke-width:2"/>
	<text x="326" y="220" style="font-family:Arial;font-size:11px;text-anchor:end" dominant-baseline="middle" transform="rotate(0, 326, 220)">  </text>
	<line x1="220" y1="230" x2="230" y2="230" style="stroke:rgb(0, 0, 0);stroke-linecap:square;stroke-width:2"/>
	<text x="234" y="230" style="font-family:Arial;font-size:11px;text-anchor:start" dominant-baseline="middle" transform="rotate(0, 234, 230)"> </text>
	<line x1="330" y1="230" x2="340" y2="230" style="stroke:rgb(0, 0, 0);stroke-linecap:square;stroke-width:2"/>
	<text x="326" y="230" style="font-family:Arial;font-size:11px;text-anchor:end" dominant-baseline="middle" transform="rotate(0, 326, 230)"> </text>
	<line x1="220" y1="240" x2="230" y2="240" style="stroke:rgb(0, 0, 0);stroke-linecap:square;stroke-width:2"/>
	<text x="234" y="240" style="font-family:Arial;font-size:11px;text-anchor:start" dominant-baseline="middle" transform="rotate(0, 234, 240)"> </text>
	<line x1="330" y1="240" x2="340" y2="240" style="stroke:rgb(0, 0, 0);stroke-linecap:square;stroke-width:2"/>
	<text x="326" y="240" style="font-family:Arial;font-size:11px;text-anchor:end" dominant-baseline="middle" transform="rotate(0, 326, 240)"> </text>
	<line x1="220" y1="250" x2="230" y2="250" style="stroke:rgb(0, 0, 0);stroke-linecap:square;stroke-width:2"/>
	<text x="234" y="250" style="font-family:Arial;font-size:11px;text-anchor:start" dominant-baseline="middle" transform="rotate(0, 234, 250)">gpio00</text>
	<line x1="330" y1="250" x2="340" y2="250" style="stroke:rgb(0, 0, 0);stroke-linecap:square;stroke-width:2"/>
	<text x="326" y="250" style="font-family:Arial;font-size:11px;text-anchor:end" dominant-baseline="middle" transform="rotate(0, 326, 250)">gpio03</text>
	<line x1="220" y1="260" x2="230" y2="260" style="stroke:rgb(0, 0, 0);stroke-linecap:square;stroke-width:2"/>
	<text x="234" y="260" style="font-family:Arial;font-size:11px;text-anchor:start" dominant-baseline="middle" transform="rotate(0, 234, 260)">gpio05</text>
	<line x1="330" y1="260" x2="340" y2="260" style="stroke:rgb(0, 0, 0);stroke-linecap:square;stroke-width:2"/>
	<text x="326" y="260" style="font-family:Arial;font-size:11px;text-anchor:end" dominant-baseline="middle" transform="rotate(0, 326, 260)">gpio02</text>
	<line x1="220" y1="270" x2="230" y2="270" style="stroke:rgb(0, 0, 0);stroke-linecap:square;stroke-width:2"/>
	<text x="234" y="270" style="font-family:Arial;font-size:11px;text-anchor:start" dominant-baseline="middle" transform="rotate(0, 234, 270)">18</text>
	<line x1="330" y1="270" x2="340" y2="270" style="stroke:rgb(0, 0, 0);stroke-linecap:square;stroke-width:2"/>
	<text x="326" y="270" style="font-family:Arial;font-size:11px;text-anchor:end" dominant-baseline="middle" transform="rotate(0, 326, 270)">gpio01</text>
	<line x1="220" y1="280" x2="230" y2="280" style="stroke:rgb(0, 0, 0);stroke-linecap:square;stroke-width:2"/>
	<text x="234" y="280" style="font-family:Arial;font-size:11px;text-anchor:start" dominant-baseline="middle" transform="rotate(0, 234, 280)"> </text>
	<line x1="330" y1="280" x2="340" y2="280" style="stroke:rgb(0, 0, 0);stroke-linecap:square;stroke-width:2"/>
	<text x="326" y="280" style="font-family:Arial;font-size:11px;text-anchor:end" dominant-baseline="middle" transform="rotate(0, 326, 280)"> </text>
	<line x1="380" y1="250" x2="410" y2="250" style="stroke:rgb(0, 0, 0);stroke-linecap:square;stroke-width:2"/>
	<line x1="450" y1="250" x2="480" y2="250" style="stroke:rgb(0, 0, 0);stroke-linecap:square;stroke-width:2"/>
	<rect x="410" y="242" width="40" height="16" style="fill-opacity:0;fill:rgb(0, 0, 0);stroke:rgb(0, 0, 0);stroke-width:2"/>
	<text x="430" y="236" style="font-family:Arial;font-size:11px;text-anchor:middle" dominant-baseline="baseline" transform="rotate(0, 430, 236)">1 kΩ</text>
	<line x1="390" y1="290" x2="415" y2="290" style="stroke:rgb(0, 0, 0);stroke-linecap:square;stroke-width:2"/>
	<line x1="455" y1="290" x2="480" y2="290" style="stroke:rgb(0, 0, 0);stroke-linecap:square;stroke-width:2"/>
	<rect x="415" y="282" width="40" height="16" style="fill-opacity:0;fill:rgb(0, 0, 0);stroke:rgb(0, 0, 0);stroke-width:2"/>
	<text x="435" y="276" style="font-family:Arial;font-size:11px;text-anchor:middle" dominant-baseline="baseline" transform="rotate(0, 435, 276)">1 kΩ</text>
	<ellipse cx="190" cy="200" rx="2" ry="2" style="fill-opacity:1;fill:rgb(0, 0, 0);stroke:rgb(0, 0, 0);stroke-width:2"/>
</svg>